<?xml version="1.0" encoding="UTF-8" standalone="no"?>
<!-- Created with Inkscape (http://www.inkscape.org/) -->

<svg
   version="1.1"
   id="svg3186"
   width="60px"
   height="90px"
   viewBox="0 0 135 532"
   sodipodi:docname="tet75svg.svg"
   xml:space="preserve"
   inkscape:version="1.2.2 (732a01da63, 2022-12-09)"
   xmlns:inkscape="http://www.inkscape.org/namespaces/inkscape"
   xmlns:sodipodi="http://sodipodi.sourceforge.net/DTD/sodipodi-0.dtd"
   xmlns="http://www.w3.org/2000/svg"
   xmlns:svg="http://www.w3.org/2000/svg"><defs
     id="defs3190" /><sodipodi:namedview
     id="namedview3188"
     pagecolor="#505050"
     bordercolor="#ffffff"
     borderopacity="1"
     inkscape:showpageshadow="false"
     inkscape:pageopacity="0"
     inkscape:pagecheckerboard="1"
     inkscape:deskcolor="#505050"
     showgrid="false"
     inkscape:zoom="1.2934509"
     inkscape:cx="-204.87828"
     inkscape:cy="90.455695"
     inkscape:window-width="2560"
     inkscape:window-height="1377"
     inkscape:window-x="-8"
     inkscape:window-y="-8"
     inkscape:window-maximized="1"
     inkscape:current-layer="g3192" /><g
     inkscape:groupmode="layer"
     inkscape:label="Image"
     id="g3192"><g
       id="g326"
       transform="translate(0.77312378,1.5462557)"><path
         style="fill:#f9f9b1"
         d="m 123.15789,257.15923 -7.72654,-7.77213 v -49.50133 -49.50134 l 8,-7.95308 8,-7.95308 v 65.22654 65.22654 h -0.27346 -0.27346 z m 133.49843,0.4986 -7.22497,-7.27351 v -50.00151 -50.00152 l 7.5,-7.44994 7.5,-7.44994 v 64.72497 64.72497 h -0.27503 -0.27503 z M 123.15789,124.15923 115.43135,116.3871 V 66.885767 17.384431 l 8,-7.9530796 8,-7.9530796 V 66.704811 131.93135 h -0.27346 -0.27346 z m 133.49843,0.4986 -7.22497,-7.27351 V 66.882807 16.381296 l 7.5,-7.4499446 7.5,-7.4499449 V 66.706379 131.93135 h -0.27503 -0.27503 z"
         id="path340" /><path
         style="fill:#ebeb86"
         d="m 122.90789,257.68135 -7.97654,-8.25 8.24274,7.96932 8.24274,7.96932 0.26457,-65.96932 0.26458,-65.96932 0.24268,66.25 0.24269,66.25 h -0.77346 -0.77346 z m 125.98721,-57.25 3.3e-4,-50 0.28528,25.31965 0.28527,25.31965 -0.2856,24.68035 -0.28561,24.68035 z m 0.53625,-50.77503 v -0.27503 l 7.75,-7.47497 7.75,-7.47497 -7.47497,7.75 -7.47497,7.75 h -0.27503 -0.27503 z m -117.5277,-83.224969 1.9e-4,-66.9999996 0.27714,33.8228876 0.27715,33.822889 -0.27734,33.177112 -0.27733,33.17711 z m 116.99178,0.5 v -50.5 l 0.28513,25.25 0.28513,25.25 -0.28513,25.25 -0.28513,25.249999 z"
         id="path338" /><path
         style="fill:#ebeb62"
         d="m 255.90789,257.68135 -7.97654,-8.25 8.25,7.97654 8.25,7.97654 v 0.27346 0.27346 h -0.27346 -0.27346 z M 64.400724,133.1814 l 66.469366,-0.26447 -7.96926,-8.24279 -7.96926,-8.24279 8.51353,8.24278 8.51352,8.24279 66.48636,0.26448 66.48637,0.26447 h -133.5 H -2.0686485 Z M 122.90072,9.1885614 130.87009,0.9457713 64.400724,0.6813005 -2.0686485,0.4168297 64.681352,0.1740906 131.43135,-0.0686486 v 0.7734602 0.7734602 l -8.25,7.9765396 -8.25,7.9765396 z m 42.28063,-9.0067436 33.25,-0.2774277 33.25,0.2774277 33.25,0.2774277 h -66.5 -66.5 z"
         id="path336" /><path
         style="fill:#eeee00"
         d="m 15.431352,199.93135 v -50 h 50 49.999998 v 50 50 h -49.999998 -50 z m 133.999998,0 v -50 h 49.5 49.5 v 50 50 h -49.5 -49.5 z M 15.431352,66.931351 v -50 h 50 49.999998 v 50 49.999999 h -49.999998 -50 z m 133.999998,0 v -50 h 49.5 49.5 v 50 49.999999 h -49.5 -49.5 z"
         id="path334" /><path
         style="fill:#d6d600"
         d="m 7.9313515,257.93135 7.9530805,-8 h 49.54692 49.546918 l 7.95308,8 7.95308,8 H 65.431352 -0.0217281 Z m 132.7734585,0.22788 7.72654,-7.77213 V 199.93135 149.4756 l -7.72654,-7.77213 -7.72654,-7.77212 h 65.95308 65.95308 l -7.95308,8 -7.95308,8 h -49.77346 -49.77346 v 50 50 h 49.27346 49.27346 l 7.95308,8 7.95308,8 H 198.43135 132.97827 Z M 6.9313515,141.93135 l -7.9530796,-8 H 65.431352 131.88443 l -7.95308,8 -7.95308,8 H 65.431352 14.884432 Z m 0,-17 7.9530805,-8 h 50.04692 50.046918 l 7.95308,8 7.95308,8 H 64.931352 -1.0217281 Z m 133.7734585,0.22788 7.72654,-7.77213 V 66.931351 16.475598 l -7.72654,-7.7721226 -7.72654,-7.772124 h 65.95308 65.95308 l -7.95308,8 -7.95308,7.9999996 h -49.77346 -49.77346 v 50 49.999999 h 49.77346 49.77346 l 7.95308,8 7.95308,8 H 198.93135 132.97827 Z M 6.9313515,8.9313514 l -7.9530796,-8 H 64.931352 130.88443 l -7.95308,8 -7.95308,7.9999996 H 64.931352 14.884432 Z"
         id="path332" /><path
         style="fill:#8c8c0f"
         d="m -1.3259624,199.68135 0.242686,-66.25 0.26457574,65.96776 0.26457576,65.96776 7.4927382,-7.44273 7.4927387,-7.44273 0.240541,-50.52503 0.240541,-50.52503 0.26883,50.46845 0.268831,50.46845 -7.7359118,7.78155 -7.7359113,7.78155 H -0.79518829 -1.5686485 Z m 141.2338524,-58 -7.97654,-8.25 8.25,7.97654 8.25,7.97654 v 0.27346 0.27346 h -0.27346 -0.27346 z M -1.0965426,66.931351 V 0.4313514 l 0.27742769,33.2499996 0.27742771,33.25 -0.27742771,33.249999 -0.27742769,33.25 z m 141.0278926,57.999999 7.95308,-8 h 0.5 0.5 l -7.95308,8 -7.95308,8 h -0.5 -0.5 z M 14.895434,66.931351 v -50.5 l 0.28513,25.25 0.285129,25.25 -0.285129,25.25 -0.28513,25.249999 z M 139.90789,8.6813514 l -7.97654,-8.25 8.25,7.97654 8.25,7.9765396 v 0.27346 0.27346 h -0.27346 -0.27346 z"
         id="path330" /><path
         style="fill:#777700"
         d="m 132.43135,200.43135 v -65.95308 l 8,7.95308 8,7.95308 v 50.04692 50.04692 l -8,7.95308 -8,7.95308 z m -132.9999985,-0.5 v -65.44994 l 7.5,7.44994 7.5000005,7.44994 v 50.55006 50.55006 l -7.5000005,7.44994 -7.5,7.44994 z m 0,-132.999999 V 1.4814065 l 7.5,7.4499449 7.5000005,7.4499446 v 50.550055 50.550059 l -7.5000005,7.44994 -7.5,7.44994 z m 132.9999985,0 V 1.4782718 l 8,7.9530796 8,7.9530796 v 49.54692 49.546919 l -8,7.95308 -8,7.95308 z"
         id="path328" /></g></g></svg>
