<?xml version="1.0" encoding="UTF-8" standalone="no"?>
<!-- Created with Inkscape (http://www.inkscape.org/) -->

<svg
   version="1.1"
   id="svg3186"
   viewBox="0 0 265 397"
   sodipodi:docname="tet3.svg"
   xml:space="preserve"
   inkscape:version="1.2.2 (732a01da63, 2022-12-09)"
   xmlns:inkscape="http://www.inkscape.org/namespaces/inkscape"
   xmlns:sodipodi="http://sodipodi.sourceforge.net/DTD/sodipodi-0.dtd"
   xmlns="http://www.w3.org/2000/svg"
   width="60px"
   height="90px"
   xmlns:svg="http://www.w3.org/2000/svg"><defs
     id="defs3190" /><sodipodi:namedview
     id="namedview3188"
     pagecolor="#505050"
     bordercolor="#ffffff"
     borderopacity="1"
     inkscape:showpageshadow="false"
     inkscape:pageopacity="0"
     inkscape:pagecheckerboard="1"
     inkscape:deskcolor="#505050"
     showgrid="false"
     inkscape:zoom="1.2934509"
     inkscape:cx="-642.46738"
     inkscape:cy="89.682571"
     inkscape:window-width="2560"
     inkscape:window-height="1377"
     inkscape:window-x="-8"
     inkscape:window-y="-8"
     inkscape:window-maximized="1"
     inkscape:current-layer="g3192" /><g
     inkscape:groupmode="layer"
     inkscape:label="Image"
     id="g3192"><g
       id="g3396"
       transform="translate(-453.82473,-44.841285)"><path
         style="fill:#b1b1f9"
         d="m 125.20552,390.19551 -8.22792,-8.27089 v -49.50119 -49.50119 l 8.5,-8.45584 8.5,-8.45584 v 66.22792 c 0,36.42535 -0.12243,66.22792 -0.27207,66.22792 -0.14964,0 -3.97464,-3.7219 -8.50001,-8.27089 z m 0,-133 -8.22792,-8.27089 v -49.50119 -49.50119 l 8.5,-8.45584 8.5,-8.45584 v 66.22792 c 0,36.42535 -0.12243,66.22792 -0.27207,66.22792 -0.14964,0 -3.97464,-3.7219 -8.50001,-8.27089 z M 258.70414,123.69428 250.9776,115.92215 V 65.92082 15.919484 l 8,-7.9530805 8,-7.95307957 V 65.739864 c 0,36.149596 -0.12306,65.726536 -0.27346,65.726536 -0.1504,0 -3.7504,-3.49746 -8,-7.77212 z m -134,-1 -7.72654,-7.77213 V 65.42082 15.919484 l 8,-7.9530805 8,-7.95307957 V 65.239864 c 0,35.874596 -0.12306,65.226536 -0.27346,65.226536 -0.15039,0 -3.7504,-3.49746 -8,-7.77212 z"
         id="path3410" /><path
         style="fill:#8787ec"
         d="m 124.9776,140.9664 c 4.65072,-4.675 8.68084,-8.5 8.95584,-8.5 0.275,0 -3.30512,3.825 -7.95584,8.5 -4.65071,4.675 -8.68084,8.5 -8.95583,8.5 -0.27501,0 3.30513,-3.825 7.95583,-8.5 z m -0.52346,-17.75 -7.97654,-8.25 8.24269,7.96927 8.24269,7.96926 0.26468,-65.469259 0.26469,-65.46926749 0.24263,65.75000049 c 0.13345,36.162496 -0.10544,65.749996 -0.53084,65.749996 -0.42539,0 -4.36289,-3.7125 -8.75,-8.25 z M 250.9776,15.191376 c 0,-0.151265 3.48751,-3.638765 7.75,-7.75 l 7.75,-7.47497249 -7.47497,7.74999999 c -6.94259,7.1980295 -8.02503,8.2062745 -8.02503,7.4749725 z"
         id="path3408" /><path
         style="fill:#6d6df1"
         d="m 124.45414,390.2164 -7.97654,-8.25 8.25,7.97654 c 7.66236,7.40837 8.7059,8.52346 7.97654,8.52346 -0.15039,0 -3.86289,-3.7125 -8.25,-8.25 z m 0.0235,-115.75 c 4.37419,-4.4 8.17808,-8 8.45308,-8 0.27501,0 -3.07889,3.6 -7.45308,8 -4.37419,4.4 -8.17807,8 -8.45308,8 -0.275,0 3.07889,-3.6 7.45308,-8 z m 133.71855,-150.28031 -8.23729,-8.28031 0.26883,-50.469685 0.26884,-50.469691 0.24053,50.479112 0.24054,50.479104 8.22792,8.27089 c 4.52536,4.54899 8.00292,8.27089 7.72792,8.27089 -0.275,0 -4.20678,-3.72614 -8.73729,-8.28031 z"
         id="path3406" /><path
         style="fill:#0000ee"
         d="m 16.977605,332.4664 v -50 h 50 49.999995 v 50 50 h -49.999995 -50 z m 0,-133 v -50 h 50 49.999995 v 50 50 h -49.999995 -50 z m 0,-133.999996 v -50 h 50 49.999995 v 50 49.999996 h -49.999995 -50 z m 133.999995,0 v -50 h 49.5 49.5 v 50 49.999996 h -49.5 -49.5 z"
         id="path3404" /><path
         style="fill:#0000d7"
         d="m 8.477605,390.4664 7.95308,-8 h 50.04692 50.046915 l 7.95308,8 7.95308,8 H 66.477605 0.5245254 Z M 8.7041448,274.69428 c -4.2495969,-4.27467 -7.7265398,-8.22273 -7.7265398,-8.77346 0,-0.55074 3.4974557,-4.47828 7.7721237,-8.72788 l 7.7721233,-7.72654 h 50.501337 50.501331 l 7.95378,8.0007 7.95377,8.00069 -8.45515,8.49931 -8.45515,8.4993 H 66.476223 16.430685 Z M 8.977605,140.9664 l -8.4558445,-8.5 8.4558445,-8.5 8.455844,-8.5 h 49.544156 49.544165 l 8.45583,8.5 8.45584,8.5 -8.45584,8.5 -8.45583,8.5 H 66.977605 17.433449 Z m 132.772075,-16.77089 8.22792,-8.27089 V 65.96764 16.010651 l -7.72654,-7.7721238 -7.72654,-7.77212369 h 65.45152 65.4515 L 257.9776,7.9664035 250.52767,15.466404 H 200.75263 150.9776 v 50 49.999996 h 49.27209 49.27208 l 8.45584,8.5 8.45584,8.5 H 199.97761 133.52177 Z M 8.977605,7.9664035 1.5276601,0.46640351 H 66.977605 132.42754 L 124.9776,7.9664035 117.52767,15.466404 H 66.977605 16.42755 Z"
         id="path3402" /><path
         style="fill:#0f0f8c"
         d="m 0.4497109,332.4664 c 0,-36.575 0.1248425,-51.5375 0.2774277,-33.25 0.1525852,18.2875 0.1525852,48.2125 0,66.5 -0.1525852,18.2875 -0.2774277,3.325 -0.2774277,-33.25 z m 0.0132123,-199.5 C 0.4628936,59.816404 0.5819768,29.427574 0.7275526,65.435671 l 0.2646832,65.469259 8.2426842,-7.96915 8.242685,-7.96916 -8.477922,8.74989 -8.4779225,8.74989 8.4779225,8.74989 8.477922,8.74989 -8.242738,-7.96921 -8.2427374,-7.96921 -0.2645762,65.96932 C 0.5820364,236.28021 0.4629529,206.1164 0.4629232,132.9664 Z"
         id="path3400" /><path
         style="fill:#000077"
         d="m 0.977605,332.4664 v -65.45308 l 8,7.95308 8,7.95308 v 49.54692 49.54692 l -8,7.95308 -8,7.95308 z m 0,-133 v -65.45308 l 8,7.95308 8,7.95308 v 49.54692 49.54692 l -8,7.95308 -8,7.95308 z M 133.9776,65.966404 V 0.01332393 l 8,7.95307957 8,7.9530805 v 50.04692 50.046916 l -8,7.95308 -8,7.95308 z m -132.999995,-0.5 V 0.01332393 l 8,7.95307957 8,7.9530805 v 49.54692 49.546916 l -8,7.95308 -8,7.95308 z"
         id="path3398" /></g></g></svg>
