<?xml version="1.0" encoding="UTF-8" standalone="no"?>
<!-- Created with Inkscape (http://www.inkscape.org/) -->

<svg
   width="135.46666mm"
   height="135.46666mm"
   viewBox="0 0 135.46666 135.46666"
   version="1.1"
   id="svg5"
   xml:space="preserve"
   inkscape:version="1.2.2 (732a01da63, 2022-12-09)"
   sodipodi:docname="CVicon.svg"
   xmlns:inkscape="http://www.inkscape.org/namespaces/inkscape"
   xmlns:sodipodi="http://sodipodi.sourceforge.net/DTD/sodipodi-0.dtd"
   xmlns="http://www.w3.org/2000/svg"
   xmlns:svg="http://www.w3.org/2000/svg"><sodipodi:namedview
     id="namedview7"
     pagecolor="#505050"
     bordercolor="#ffffff"
     borderopacity="1"
     inkscape:showpageshadow="0"
     inkscape:pageopacity="0"
     inkscape:pagecheckerboard="1"
     inkscape:deskcolor="#505050"
     inkscape:document-units="mm"
     showgrid="false"
     inkscape:zoom="0.2102413"
     inkscape:cx="104.64167"
     inkscape:cy="228.30909"
     inkscape:window-width="2560"
     inkscape:window-height="1377"
     inkscape:window-x="-8"
     inkscape:window-y="-8"
     inkscape:window-maximized="1"
     inkscape:current-layer="layer1" /><defs
     id="defs2" /><g
     inkscape:label="Layer 1"
     inkscape:groupmode="layer"
     id="layer1"
     transform="translate(-76.991249,-88.31752)"><path
       style="fill:#020202;stroke:none;stroke-width:0.264583"
       d="m 140.02652,89.688279 c -4.91993,0.64598 -9.71947,1.00172 -14.55209,2.30898 -12.46452,3.37179 -23.85247,10.495591 -32.498816,20.068321 -5.55691,6.15236 -10.17069,13.59111 -12.91865,21.43124 -2.96916,8.47117 -4.91899,17.69136 -4.30051,26.72292 0.71174,10.39336 3.27358,20.43509 8.26005,29.63333 13.27574,24.48877 41.043326,38.08227 68.445426,34.58501 34.06246,-4.34764 60.22869,-35.48645 58.72718,-69.77459 -1.34091,-30.61466 -23.73683,-57.602351 -53.96468,-63.658831 -5.47264,-1.09651 -11.61679,-2.04917 -17.19791,-1.31638 m 27.78124,84.289791 H 156.1661 c -1.23402,0 -3.37159,-0.39952 -4.38309,0.4609 -1.01309,0.86175 -0.64399,2.85909 -0.64399,4.03702 v 8.46666 c 0,0.88054 0.31088,2.54397 -0.272,3.28004 -0.49292,0.62257 -1.68142,0.42386 -2.37384,0.42413 h -6.61458 -22.225 c -2.22065,0 -6.74846,0.86333 -8.67092,-0.31195 -1.26074,-0.77099 -0.85408,-2.94137 -0.85408,-4.18597 v -12.43541 -42.8625 -11.11249 c 0,-1.18004 -0.36354,-3.14907 0.4609,-4.11858 0.74534,-0.87609 2.22224,-0.64387 3.24327,-0.64392 h 7.9375 33.3375 8.99583 c 1.0959,8e-5 2.69451,-0.25633 3.35544,0.85418 0.7292,1.22544 0.34872,3.33153 0.34872,4.70207 v 11.37707 42.06875 m -31.48541,-51.213 c -2.37887,0.37147 -4.60772,1.20094 -6.61458,2.53073 -14.39254,9.53584 -5.54911,32.99459 11.64166,30.30987 2.46565,-0.38524 4.80272,-1.23217 6.87917,-2.62467 14.45498,-9.69248 5.23266,-32.89272 -11.90625,-30.21593 m -17.19792,70.79216 h 24.07709 c 3.21865,0 7.83854,0.83768 10.84791,-0.39237 1.80711,-0.73845 3.14987,-2.49291 4.49792,-3.84096 l 7.9375,-7.9375 c 1.4052,-1.4052 3.27475,-2.80961 3.90922,-4.7625 1.55045,-4.77149 0.32411,-11.66309 0.32411,-16.66875 v -35.98332 c 1.45071,0 4.26852,-0.53684 5.44142,0.46091 0.97049,0.8255 0.644,2.6445 0.644,3.77241 v 10.05417 43.12708 12.96458 c 0,1.31948 0.48445,3.87086 -0.644,4.83077 -0.92578,0.7874 -2.72891,0.4609 -3.85392,0.4609 h -10.05417 -30.69166 -8.20208 c -1.00701,0 -2.47253,0.25136 -3.36577,-0.31194 -1.48616,-0.93689 -0.86757,-4.27567 -0.86757,-5.77348 m 30.1625,-45.77291 c -1.50706,-2.21562 -3.08663,-4.11824 -5.55625,-5.29167 0.81121,-2.14391 1.93675,-3.64648 1.50045,-6.08541 -1.05304,-5.88407 -8.91883,-6.53018 -11.82052,-1.85209 -1.84573,2.97551 -0.36195,5.14615 0.79507,7.9375 -2.42517,1.05992 -4.28016,3.00223 -5.55625,5.29167 -5.3213,-4.16586 -3.59119,-13.59191 0.34396,-17.98135 5.87402,-6.55186 17.01244,-5.22445 21.55508,2.10635 1.37265,2.21536 1.91267,4.56406 1.91346,7.14375 0.001,3.03689 -0.7104,6.6892 -3.175,8.73125 M 137.90985,134.4054 c 4.44632,-1.211 6.32354,5.62928 1.85208,6.7691 -4.27064,1.0885 -6.11214,-5.60917 -1.85208,-6.7691 m -7.14375,15.76017 c 2.08306,-5.00195 7.78801,-7.60174 12.7,-4.63576 1.27132,0.76755 2.99297,2.26589 3.22871,3.83804 0.25109,1.67376 -2.54688,2.49582 -3.75788,2.85935 -4.24947,1.27477 -8.5254,0.34264 -12.17083,-2.06163 m -7.63349,10.59074 c -1.35017,0.80433 -0.49107,2.34289 0.75829,2.5781 2.40348,0.45191 5.22446,0.0603 7.66895,0.0603 h 15.61042 c 1.80895,0 6.37143,0.81835 7.76366,-0.46091 2.90328,-2.66753 -4.38546,-2.44951 -5.38241,-2.44951 h -19.05 c -1.91532,0 -5.69781,-0.72364 -7.36891,0.27199 m 6.32618,7.33266 c -1.20888,0.50615 -1.32556,2.18705 0.0132,2.59927 4.08517,1.25836 10.23911,0.11483 14.52325,0.11483 1.2782,0 3.89149,0.49239 4.90855,-0.42413 1.80842,-1.63036 -1.1049,-2.47994 -2.26272,-2.48602 -3.96849,-0.0209 -7.93777,-2.7e-4 -11.90625,-2.7e-4 -1.55469,0 -3.82217,-0.41222 -5.27606,0.19632 m 37.29064,8.79952 c -3.0599,4.34392 -8.35607,9.64009 -12.7,12.7 v -12.7 z"
       id="path302" /></g></svg>
