<?xml version="1.0" encoding="UTF-8" standalone="no"?>
<!-- Created with Inkscape (http://www.inkscape.org/) -->

<svg
   version="1.1"
   id="svg3186"
   width="60px"
   height="90px"
   viewBox="0 0 265 397"
   sodipodi:docname="tet6.svg"
   xml:space="preserve"
   inkscape:version="1.2.2 (732a01da63, 2022-12-09)"
   xmlns:inkscape="http://www.inkscape.org/namespaces/inkscape"
   xmlns:sodipodi="http://sodipodi.sourceforge.net/DTD/sodipodi-0.dtd"
   xmlns="http://www.w3.org/2000/svg"
   xmlns:svg="http://www.w3.org/2000/svg"><defs
     id="defs3190" /><sodipodi:namedview
     id="namedview3188"
     pagecolor="#505050"
     bordercolor="#ffffff"
     borderopacity="1"
     inkscape:showpageshadow="false"
     inkscape:pageopacity="0"
     inkscape:pagecheckerboard="1"
     inkscape:deskcolor="#505050"
     showgrid="false"
     inkscape:zoom="1.2934509"
     inkscape:cx="-73.446932"
     inkscape:cy="72.673806"
     inkscape:window-width="2560"
     inkscape:window-height="1377"
     inkscape:window-x="-8"
     inkscape:window-y="-8"
     inkscape:window-maximized="1"
     inkscape:current-layer="g3192" /><g
     inkscape:groupmode="layer"
     inkscape:label="Image"
     id="g3192"><g
       id="g366"
       transform="translate(-0.77312065,0.7731287)"><path
         style="fill:#f9b0b0"
         d="m 125.9757,389.41976 -7.22497,-7.27351 v -49.99856 -49.99857 l 8.5,-8.45584 8.5,-8.45584 v 65.72792 65.72792 h -1.27503 -1.27503 z m 0.50157,-132.4986 -7.72654,-7.77213 V 199.1477 149.14636 l 8,-7.95308 8,-7.95308 v 65.72654 65.72654 h -0.27346 -0.27346 z m 131.99664,-2.00298 -6.72318,-6.77509 v -49.50173 -49.50172 l 7,-6.94636 7,-6.94636 v 63.22318 63.22318 h -0.27682 -0.27682 z M 35.073618,131.94365 l 33.822889,-0.27715 33.177113,0.27734 33.17711,0.27733 -67,-1.9e-4 -67,-1.9e-4 z m 223.400292,-10.02547 -6.72318,-6.77509 V 65.641364 16.139641 l 7,-6.9463611 7,-6.9463609 V 65.4701 128.69328 h -0.27682 -0.27682 z"
         id="path380" /><path
         style="fill:#d96161"
         d="m 125.22391,389.44328 -6.97318,-7.25 7.25,6.97318 7.25,6.97318 v 0.27682 0.27682 h -0.27682 -0.27682 z m 9.76306,-189.72654 -0.23624,-66.47654 -8.25,7.97643 -8.25,7.97643 8.5,-8.77263 8.5,-8.77262 0.2633,33.52274 0.2633,33.52273 -0.27705,33.75 -0.27706,33.75 z m 123.23694,55.72654 -6.97318,-7.25 7.25,6.97318 7.25,6.97318 v 0.27682 0.27682 h -0.27682 -0.27682 z m 0,-133 -6.97318,-7.25 7.25,6.97318 7.25,6.97318 v 0.27682 0.27682 h -0.27682 -0.27682 z m 0.0268,-113.7500001 6.94636,-7 h 0.5 0.5 l -6.94636,7 -6.94636,7.0000001 h -0.5 -0.5 z"
         id="path378" /><path
         style="fill:#aa4747"
         d="m 135.21025,131.44328 -0.4777,-1.25 0.26651,-65 0.26652,-65.00000014 0.24257,65.74275814 0.24258,65.742762 65.25,0.26461 65.25,0.26461 -65.28138,0.24263 -65.28139,0.24263 z"
         id="path376" /><path
         style="fill:#ee0000"
         d="m 18.75073,332.69328 v -50 h 50 50 v 50 50 h -50 -50 z m 0,-134 v -50 h 50 50 v 50 50 h -50 -50 z m 133.24066,0.25 0.25934,-49.75 49.75,-0.25934 49.75,-0.25933 v 50.00933 50.00934 h -50.00934 -50.00933 z m -0.24066,-133.25 v -50 h 50 50 v 50 50 h -50 -50 z"
         id="path374" /><path
         style="fill:#d70000"
         d="m 11.25073,389.69328 6.946361,-7 h 50.053639 50.05364 l 6.94636,7 6.94636,7 H 68.25073 4.3043691 Z m -0.5,-115.5 -8.4558444,-8.5 8.4558444,-8.5 8.455844,-8.5 h 49.544156 49.54416 l 8.45584,8.5 8.45584,8.5 -8.45584,8.5 -8.45584,8.5 H 68.75073 19.206574 Z m 133,-17 8.45584,-8.5 h 49.54711 49.54711 l 7.22497,7.27352 7.22497,7.27351 v 1.22649 1.22648 h -65.22792 -65.22792 z m -0.24917,-116.25 -8.20667,-8.25 h 65.22792 65.22792 v 1.27682 1.27682 l -6.75644,6.70467 -6.75644,6.70466 -50.26481,0.26852 -50.26481,0.26851 z m -133.25083,-0.25 -7.9530796,-8 H 68.25073 134.20381 l -7.95308,8 -7.95308,8 H 68.25073 18.20381 Z m 134,-17 7.95308,-8 h 49.54849 49.54849 l 7.22497,7.27352 7.22497,7.27351 v 0.72649 0.72648 h -64.72654 -64.72654 z m 0.5,-115.5000001 -7.44994,-7.50000004 h 64.44994 64.44994 l -7.44994,7.50000004 -7.44994,7.5000001 h -49.55006 -49.55006 z"
         id="path372" /><path
         style="fill:#9f0000"
         d="m 10.50073,389.66976 7.25,-7.52351 v -49.9556 -49.95559 l -8.2279222,-8.27089 -8.2279223,-8.27089 8.2279223,-8.27089 8.2279222,-8.27089 v -49.95822 -49.95822 l -8.25,-8.52089 -8.25,-8.52089 8.75,8.47792 8.75,8.47792 v 50.00119 50.00119 l -8.227922,8.27089 -8.2279224,8.27089 8.2279224,8.27089 8.227922,8.27089 v 50.00414 50.00414 l -7.75,7.47497 -7.75,7.47497 z m 132.75,-265.97648 7.95308,-8 h 0.5 0.5 l -7.95308,8 -7.95308,8 h -0.5 -0.5 z m 0.5,-115.5000001 -7.44994,-7.50000004 h 0.5 0.5 l 7.44994,7.50000004 7.44994,7.5000001 h -0.5 -0.5 z"
         id="path370" /><path
         style="fill:#770000"
         d="M 1.75073,331.46674 V 266.2402 l 8,7.95308 8,7.95308 v 49.99994 49.99995 l -7.224972,7.27351 -7.2249729,7.27352 H 2.5257575 1.75073 Z m 0,-132.27346 V 133.2402 l 8,7.95308 8,7.95308 v 50.04692 50.04692 l -8,7.95308 -8,7.95308 z m 134,0 V 133.2402 l 8,7.95308 8,7.95308 v 50.04692 50.04692 l -8,7.95308 -8,7.95308 z m 0,-133.5 V 0.24020028 l 8,7.95307962 8,7.9530801 v 49.54692 49.54692 l -8,7.95308 -8,7.95308 z"
         id="path368" /></g></g></svg>
