  <svg
    xmlns="http://www.w3.org/2000/svg"
    xmlSpace="preserve"
    viewBox="0 0 135 532"
    width="60px"
	  height="90px"

  >
    <path
      fill="#00D8D8"
      d="M136 398c0 .444 0 .889-.167 2.034-1.085.775-2.002.85-3.225 1.055-5.137 5.046-9.97 9.961-15.258 14.879-33.405.017-66.354.032-99.501-.222C12.099 410.32 6.549 405.16 1 400c0-.444 0-.889.342-1.691 5.797-5.68 11.251-11.002 17.17-16.315 33.42.017 66.373.025 99.519.31 5.111 5.087 10.03 9.896 15.189 15 1.086.427 1.933.562 2.78.696zM1 134c0-.75 0-1.5.35-2.59 5.757-5.37 11.164-10.398 17.045-15.428 33.517-.01 66.56-.02 99.886.15a790.785 790.785 0 0 1 14.672 14.293c-.142 1.628-.02 3.35-.822 4.202-4.624 4.91-9.467 9.613-14.696 14.381-33.458-.004-66.456-.004-99.722-.196-3.453-3.351-6.538-6.62-9.854-9.634C5.75 137.258 3.3 135.713 1 134zM1 267c0-.75 0-1.5.351-2.542 5.778-5.348 11.205-10.405 17.101-15.46 33.461-.003 66.453-.007 99.679.23 4.9 4.906 9.666 9.48 14.137 14.325.8.867.375 2.862.225 4.49-5.026 4.771-9.761 9.39-14.965 14.004-33.515-.015-66.561-.023-99.898-.188-2.528-2.356-4.685-4.646-7.024-6.733C7.478 272.336 4.21 269.701 1 267z"
    />
    <path
      fill="#AFFBFB"
      d="M132.784 267.89c-.141-1.475.283-3.47-.516-4.337-4.47-4.846-9.237-9.419-14.115-14.792-.228-33.72-.243-66.735-.257-99.748 4.768-4.773 9.611-9.477 14.235-14.386.802-.851.68-2.574 1.078-4.543.326-2.77.757-4.89.76-7.01.04-40.69.03-81.382.031-122.074.667.332 1.784.546 1.91 1.02.286 1.09.09 2.307.09 3.473V397.53c-.847.335-1.694.2-2.554-.575.175-2.112.527-3.582.528-5.052.03-39.605.038-79.21-.028-118.815-.003-1.734-.758-3.466-1.162-5.2z"
    />
    <path
      fill="#00D8D8"
      d="M135 533c-43.34 0-86.679.009-130.018-.042-1.328-.002-2.655-.625-3.632-1.422 5.757-5.494 11.164-10.523 17.045-15.554 33.519-.013 66.563-.025 99.89.144a844.808 844.808 0 0 1 14.687 14.293c.791 1.063 1.41 1.822 2.028 2.581z"
    />
    <path
      fill="#007979"
      d="M1 267.469c3.209 2.232 6.478 4.866 9.606 7.657 2.339 2.087 4.496 4.377 7.031 7.2.335 33.637.373 66.648.41 99.66-5.454 5.321-10.908 10.643-16.705 15.99C1 354.645 1 311.291 1 267.468zM17.921 515.984c-5.407 5.029-10.814 10.058-16.57 15.052C1 487.646 1 444.292 1 400.469c5.55 4.69 11.1 9.85 16.808 15.743.143 33.747.128 66.76.113 99.772zM17.92 115.984c-5.406 5.028-10.813 10.056-16.57 15.05C1 88.312 1 45.624 1.19 2.325 1.617 1.503 1.824 1.265 2 1c.444 0 .889 0 1.76.324 5.048 5.112 9.668 9.901 14.247 15.157-.056 33.478-.072 66.49-.087 99.503zM17.983 248.997c-5.427 5.056-10.854 10.113-16.632 15.086C1 220.98 1 177.958 1 134.47c2.298 1.244 4.749 2.789 6.86 4.709 3.315 3.015 6.4 6.283 9.835 10.103.263 33.678.275 66.697.288 99.716z"
    />
    <path
      fill="#B0FBFB"
      d="M133.667 1c.332 40.692.342 81.383.302 122.075-.003 2.12-.434 4.24-.922 6.7-4.999-4.26-9.741-8.863-14.775-14.107-.34-33.66-.386-66.677-.241-99.973A2606.54 2606.54 0 0 1 132 1h1.667z"
    />
    <path
      fill="#00D8D8"
      d="M131.531 1c-4.123 4.806-8.716 9.611-13.958 14.697-33.608.293-66.567.305-99.525.317-4.62-4.789-9.24-9.578-13.954-14.69C46.354 1 88.708 1 131.531 1z"
    />
    <path
      fill="#AFFBFB"
      d="M135.5 533c-1.118-.759-1.737-1.518-2.274-2.923.31-2.272.737-3.898.739-5.524.037-39.448.042-78.896-.017-118.344-.003-1.75-.675-3.501-1.035-5.252.918-.074 1.835-.148 2.92-.59.167 43.966.167 88.3-.333 132.633z"
    />
    <path
      fill="#008282"
      d="M1.5 1c.324.266.117.503-.311.857C1 1.667 1 1.333 1.5 1z"
    />
    <path
      fill="#00F0F0"
      d="M18.395 515.982c-.459-33.01-.444-66.023-.388-99.501 32.99-.481 65.938-.496 99.4-.044.54 33.48.568 66.495.595 99.509l-99.607.036zM18.513 381.994c-.503-33.02-.541-66.031-.586-99.51 33.04-.46 66.086-.452 99.592.025.413 33.486.367 66.502.32 99.518-32.954-.008-65.907-.016-99.326-.033z"
    />
    <path
      fill="#B0FBFB"
      d="M118.03 382.305c-.144-33.294-.098-66.31-.042-99.789 4.744-5.082 9.48-9.702 14.505-14.474.695 1.58 1.45 3.313 1.453 5.047.066 39.605.057 79.21.028 118.815-.001 1.47-.353 2.94-.767 4.758-5.145-4.462-10.065-9.27-15.176-14.357z"
    />
    <path
      fill="#B2FBFB"
      d="M118.286 516.126c-.311-33.194-.338-66.208-.422-99.692 4.775-5.384 9.607-10.299 14.744-15.345.665 1.619 1.337 3.37 1.34 5.12.06 39.448.054 78.896.017 118.344-.002 1.626-.43 3.252-.912 5.22-4.998-4.261-9.74-8.864-14.767-13.647z"
    />
    <path
      fill="#00F0F0"
      d="M18.007 16.48c33-.478 65.958-.49 99.374-.504.505 33.015.552 66.032.608 99.513-33.034.473-66.077.482-99.594.493-.46-33.01-.444-66.023-.388-99.501zM18.452 248.997c-.482-33.02-.494-66.038-.488-99.525 33.015-.468 66.013-.468 99.47-.464.476 33.018.49 66.032.484 99.513-33.013.47-66.005.474-99.466.476z"
    />
  </svg>