<?xml version="1.0" encoding="UTF-8" standalone="no"?>
<!-- Created with Inkscape (http://www.inkscape.org/) -->

<svg
   version="1.1"
   id="svg3186"
   width="60px"
   height="90px"
   viewBox="0 0 265 397"
   sodipodi:docname="tet7.svg"
   xml:space="preserve"
   inkscape:version="1.2.2 (732a01da63, 2022-12-09)"
   xmlns:inkscape="http://www.inkscape.org/namespaces/inkscape"
   xmlns:sodipodi="http://sodipodi.sourceforge.net/DTD/sodipodi-0.dtd"
   xmlns="http://www.w3.org/2000/svg"
   xmlns:svg="http://www.w3.org/2000/svg"><defs
     id="defs3190" /><sodipodi:namedview
     id="namedview3188"
     pagecolor="#505050"
     bordercolor="#ffffff"
     borderopacity="1"
     inkscape:showpageshadow="false"
     inkscape:pageopacity="0"
     inkscape:pagecheckerboard="1"
     inkscape:deskcolor="#505050"
     showgrid="false"
     inkscape:zoom="1.2934509"
     inkscape:cx="-73.446932"
     inkscape:cy="72.673806"
     inkscape:window-width="2560"
     inkscape:window-height="1377"
     inkscape:window-x="-8"
     inkscape:window-y="-8"
     inkscape:window-maximized="1"
     inkscape:current-layer="g3192" /><g
     inkscape:groupmode="layer"
     inkscape:label="Image"
     id="g3192"><g
       id="g406"
       transform="translate(-0.7731239,-0.77312343)"><path
         style="fill:#f9e1b0"
         d="m 125.20414,390.42116 -7.72654,-7.77213 V 333.1477 283.64636 l 8,-7.95308 8,-7.95308 v 65.22654 65.22654 h -0.27346 -0.27346 z m 133.49843,0.4986 -7.22497,-7.27351 v -50.00151 -50.00152 l 7.5,-7.44994 7.5,-7.44994 v 64.72497 64.72497 h -0.27503 -0.27503 z M 126.20675,258.4235 117.4776,249.65371 v -49.50229 -49.5023 l 8.5,-8.45584 8.5,-8.45584 v 66.22078 66.22078 l 66.25,0.2644 66.25,0.2644 -66.02085,0.24274 -66.02085,0.24274 z M 125.70552,124.92239 117.4776,116.6515 V 67.150311 17.64912 l 8.5,-8.4558441 8.5,-8.45584447 V 66.965354 133.19328 h -0.27208 -0.27208 z"
         id="path420" /><path
         style="fill:#f5ca75"
         d="m 124.4776,390.69328 -7.44994,-7.5 h 0.5 0.5 l 7.44994,7.5 7.44994,7.5 h -0.5 -0.5 z m 9.24269,-57.97911 -0.24269,-65.97911 -8.24249,-8.52089 -8.2425,-8.52089 8.74976,8.51441 8.74977,8.51441 -0.26459,65.98559 -0.26458,65.98559 z m 123.98228,58.20559 -7.22497,-7.27351 V 333.6463 283.64636 l 8.25,-7.97654 8.25,-7.97654 -7.75,8.02212 -7.75,8.02213 v 49.95436 49.95436 l 7.22497,7.27351 7.22497,7.27352 h -0.5 -0.5 z M 125.4776,141.69328 l 8.45584,-8.5 h 0.5 0.5 l -8.45584,8.5 -8.45584,8.5 h -0.5 -0.5 z m 0,-133.0000041 8.45584,-8.49999997 h 0.5 0.5 l -8.45584,8.49999997 -8.45584,8.5000001 h -0.5 -0.5 z"
         id="path418" /><path
         style="fill:#ee9e00"
         d="m 17.477602,333.19328 v -50 h 49.77346 49.773458 l 7.94586,-7.99274 7.94586,-7.99274 -65.969318,-0.26457 -65.96932047,-0.26458 66.25000047,-0.24268 66.249998,-0.24269 v 0.77346 0.77346 l -8,7.95308 -8,7.95308 v 49.77346 49.77346 h -49.999998 -50 z m 133.999998,0 v -50 h 49.5 49.5 v 50 50 h -49.5 -49.5 z m -133.999998,-133 v -50 h 50 49.999998 v 50 50 h -49.999998 -50 z m 49.46932,-66.74995 65.969318,-0.26457 -7.94586,-7.99274 -7.94586,-7.99274 H 67.251062 17.477602 v -50.000004 -50 h 50 49.999998 v 49.77346 49.773464 l 8,7.95308 8,7.95308 v 0.77346 0.77346 L 67.227602,133.95059 0.97760153,133.70791 Z"
         id="path416" /><path
         style="fill:#d78f00"
         d="m 10.477602,390.69328 7.449945,-7.5 h 49.550055 49.550058 l 7.44994,7.5 7.44994,7.5 H 67.477602 3.0276566 Z m 132.775028,0.22648 7.22497,-7.27351 v -50.45436 -50.45436 l -7.72654,-7.77213 -7.72654,-7.77212 h 65.95308 65.95308 l -7.95308,8 -7.95308,8 H 201.25106 151.4776 v 50 50 h 49.27503 49.27503 l 7.44994,7.5 7.44994,7.5 H 200.4776 136.02766 Z M 8.9776015,275.19328 l -7.9530796,-8 H 66.977602 132.93068 l -7.95308,8 -7.95308,8 H 66.977602 16.930682 Z m 0,-17 7.9530805,-8 h 50.04692 50.046918 l 7.95308,8 7.95308,8 H 66.977602 1.0245219 Z M 8.7049286,141.92179 0.47641136,133.65031 8.747894,125.42179 l 8.271483,-8.22851 h 50.002573 50.00257 l 7.94586,7.99274 7.94586,7.99274 -65.969318,0.26457 -65.96932047,0.26458 65.97654047,0.24268 65.976538,0.24269 -7.95308,8 -7.95308,8 H 66.978984 16.933446 Z M 9.4776015,8.6932759 1.021757,0.19327593 H 67.477602 133.93344 L 125.4776,8.6932759 117.02176,17.193276 H 67.477602 17.933446 Z"
         id="path414" /><path
         style="fill:#906a1c"
         d="m 0.94951003,332.69328 1.974e-4,-66 0.27751817,33.32274 0.2775182,33.32274 -0.2777156,32.67726 -0.27771567,32.67726 z m 141.00462997,-57.75 -7.97654,-8.25 8.25,7.97654 8.25,7.97654 v 0.27346 0.27346 h -0.27346 -0.27346 z m -141.00443257,-74.75 v -66.5 l 0.27742767,33.25 0.2774277,33.25 -0.2774277,33.25 -0.27742767,33.25 z m 1.92e-4,-133.500004 1.92e-4,-67.00000007 0.27714497,33.82288807 0.277145,33.822889 -0.277337,33.177117 -0.27733697,33.17711 z"
         id="path412" /><path
         style="fill:#865800"
         d="m 9.2276015,391.16976 7.2500005,-7.52351 v -49.95436 -49.95436 l -7.7500005,-8.02213 -7.74999997,-8.02212 8.24999997,7.97654 8.2500005,7.97654 v 50.04849 50.04849 l -7.7500005,7.47497 -7.75,7.47497 z M 135.4776,397.91825 v -0.27503 l 7.75,-7.47497 7.75,-7.47497 -7.47497,7.75 -7.47497,7.75 h -0.27503 -0.27503 z M 16.941684,200.19328 v -50.5 l 0.28513,25.25 0.28513,25.25 -0.28513,25.25 -0.28513,25.25 z M 8.7276015,124.67116 16.477602,116.64903 V 66.693276 16.737523 L 8.7276015,8.7153996 0.97760153,0.69327593 9.2276015,8.6698157 17.477602,16.646356 v 50.04692 50.046924 l -8.2500005,7.97654 -8.24999997,7.97654 z"
         id="path410" /><path
         style="fill:#774f00"
         d="m 1.4776015,333.69328 v -64.94994 l 7.5,7.44994 7.5000005,7.44994 v 50.05006 50.05006 l -7.5000005,7.44994 -7.5,7.44994 z m 132.9999985,-0.5 V 267.7402 l 8,7.95308 8,7.95308 v 49.54692 49.54692 l -8,7.95308 -8,7.95308 z m -132.9999985,-133 v -65.44994 l 7.5,7.44994 7.5000005,7.44994 v 50.55006 50.55006 l -7.5000005,7.44994 -7.5,7.44994 z m 0,-133.500004 V 1.743331 l 7.5,7.4499449 7.5000005,7.4499451 v 50.050055 50.050064 l -7.5000005,7.44994 -7.5,7.44994 z"
         id="path408" /></g></g></svg>
