<?xml version="1.0" encoding="UTF-8" standalone="no"?>
<!-- Created with Inkscape (http://www.inkscape.org/) -->

<svg
   version="1.1"
   id="svg3186"
   width="60px"
   height="90px"
   viewBox="0 0 265 397"
   sodipodi:docname="tet4.svg"
   xml:space="preserve"
   inkscape:version="1.2.2 (732a01da63, 2022-12-09)"
   xmlns:inkscape="http://www.inkscape.org/namespaces/inkscape"
   xmlns:sodipodi="http://sodipodi.sourceforge.net/DTD/sodipodi-0.dtd"
   xmlns="http://www.w3.org/2000/svg"
   xmlns:svg="http://www.w3.org/2000/svg"><defs
     id="defs3190" /><sodipodi:namedview
     id="namedview3188"
     pagecolor="#505050"
     bordercolor="#ffffff"
     borderopacity="1"
     inkscape:showpageshadow="false"
     inkscape:pageopacity="0"
     inkscape:pagecheckerboard="1"
     inkscape:deskcolor="#505050"
     showgrid="false"
     inkscape:zoom="1.2934509"
     inkscape:cx="-204.87829"
     inkscape:cy="89.682571"
     inkscape:window-width="2560"
     inkscape:window-height="1377"
     inkscape:window-x="-8"
     inkscape:window-y="-8"
     inkscape:window-maximized="1"
     inkscape:current-layer="g3192" /><g
     inkscape:groupmode="layer"
     inkscape:label="Image"
     id="g3192"><g
       id="g3436"
       transform="translate(-408.98345,-126.01947)"><path
         style="fill:#e1b1f9"
         d="m 124.24497,388.6895 -6.22111,-6.2769 v -49.99517 -49.99518 l 8.5,-8.45584 8.5,-8.45584 v 64.72792 64.72792 h -2.27889 c -1.46907,0 -4.4896,-2.23054 -8.5,-6.27691 z m 135.02889,-131.66225 -8.25,-8.67669 v -49.37701 -49.37701 l 8.5,-8.68629 8.5,-8.6863 v 66.87123 c 0,36.77918 -0.1125,66.81218 -0.25,66.74 -0.1375,-0.0722 -3.9625,-4.03574 -8.5,-8.80793 z m -133.52346,-0.83296 -7.72654,-7.77213 v -49.50133 -49.50134 l 8,-7.95308 8,-7.95308 v 65.22654 c 0,35.8746 -0.12306,65.22654 -0.27346,65.22654 -0.1504,0 -3.7504,-3.49746 -8,-7.77212 z m 0.50138,-132.49877 -8.22792,-8.27089 V 65.414218 15.403802 l 5.779,-5.7186963 c 4.1849,-4.1412381 6.52956,-5.7186965 8.5,-5.7186965 h 2.721 V 67.966409 c 0,35.200001 -0.12243,64.000001 -0.27208,64.000001 -0.14964,0 -3.97464,-3.7219 -8.5,-8.27089 z"
         id="path3450" /><path
         style="fill:#b352e4"
         d="m 117.48761,332.46641 c 1.8e-4,-27.5 0.12871,-38.60616 0.28561,-24.68035 0.1569,13.92581 0.15675,36.42581 -3.3e-4,50 -0.15708,13.57419 -0.28546,2.18035 -0.28528,-25.31965 z m 8.0129,-58.25 7.97643,-8.25 -65.976545,-0.2392 -65.9765397,-0.23921 65.7738987,-0.51079 65.773906,-0.5108 -8.0239,-7.97654 -8.0239,-7.97654 v -49.54692 -49.54692 l 8.0239,-7.97654 8.0239,-7.97654 -65.773906,-0.5108 -65.7738987,-0.51079 65.9765397,-0.23921 65.976545,-0.2392 -7.97643,-8.25 -7.97643,-8.25 8.52078,8.25 8.52078,8.25 h 66.22911 c 36.42601,0 66.22911,0.34806 66.22911,0.77346 0,0.4254 -3.7125,4.3629 -8.25,8.75 l -8.25,7.97654 7.97654,-8.25 7.97654,-8.25 H 200.47832 134.4797 l -8.22792,8.27089 -8.22792,8.27089 v 49.50119 49.50119 l 8.27089,8.22792 8.27089,8.22792 h 65.95565 65.95565 l -7.97654,-8.25 -7.97654,-8.25 8.25,7.97654 c 4.5375,4.3871 8.25,8.3246 8.25,8.75 0,0.4254 -29.8031,0.77346 -66.22911,0.77346 h -66.22911 l -8.52078,8.25 -8.52078,8.25 z m -8.0129,-208.750001 c 1.8e-4,-27.5 0.12871,-38.606157 0.28561,-24.680349 0.1569,13.925808 0.15675,36.425808 -3.3e-4,50 -0.15708,13.57419 -0.28546,2.180349 -0.28528,-25.319651 z"
         id="path3448" /><path
         style="fill:#9e00ee"
         d="m 67.773855,382.21662 -49.75,-0.26888 v -49.99067 -49.99066 h 49.75 49.750005 v 50.5 c 0,27.775 0,50.3918 0,50.25955 0,-0.13225 -22.387505,-0.36145 -49.750005,-0.50934 z m -49.75,-183.25021 v -50 h 49.5 49.500005 v 50 50 h -49.500005 -49.5 z m 133.000005,0 v -50 h 50 50 v 50 50 h -50 -50 z M 18.023855,65.984653 V 16.002897 l 49.75,-0.268244 49.750005,-0.268244 v 50.25 50.250001 h -49.750005 -49.75 z"
         id="path3446" /><path
         style="fill:#8f00d7"
         d="m 12.023855,388.46641 6.442223,-6.5 h 49.388491 49.388491 l 6.6404,6.48222 6.6404,6.48222 -62.471117,0.0178 -62.4711111,0.0178 z m -2.4999997,-114.5 -7.9530796,-8 H 67.523855 133.47694 l -7.95308,8 -7.95308,8 H 67.523855 17.476935 Z m 0,-17 7.9530797,-8 h 50.04692 50.046925 l 7.95308,8 7.95308,8 H 67.523855 1.5707757 Z m 134.0000047,0 7.95308,-8 h 49.54692 49.54692 l 7.95308,8 7.95308,8 h -65.45308 -65.45308 z m -134.0000047,-116 -7.9530796,-8 H 67.523855 133.47694 l -7.95308,8 -7.95308,8 H 67.523855 17.476935 Z m 134.0000047,0 -7.95308,-8 h 65.45308 65.45308 l -7.95308,8 -7.95308,8 h -49.54692 -49.54692 z m -134.0000047,-17 7.9530797,-8 h 50.04692 50.046925 l 7.95308,8 7.95308,8 H 67.523855 1.5707757 Z M 12.523855,9.9664092 l -5.9373927,-6 61.4686957,0.018898 61.468702,0.018898 -6.15044,5.9811022 -6.15045,5.9811016 H 67.842109 18.461248 Z"
         id="path3444" /><path
         style="fill:#8132aa"
         d="m 134.49597,198.96641 c 0,-36.575 0.12484,-51.5375 0.27742,-33.25 0.15259,18.2875 0.15259,48.2125 0,66.5 -0.15258,18.2875 -0.27742,3.325 -0.27742,-33.25 z"
         id="path3442" /><path
         style="fill:#69009e"
         d="m 10.773855,388.9395 6.25,-6.5269 v -49.95221 -49.9522 l -8.2499997,-8.52089 -8.25,-8.52089 8.75,8.47792 8.7499997,8.47792 v 50.05097 50.05097 l -6.75,6.47111 -6.7499997,6.47111 z M 142.52386,256.96641 c 4.37419,-4.4 8.17808,-8 8.45308,-8 0.275,0 -3.07889,3.6 -7.45308,8 -4.37419,4.4 -8.17808,8 -8.45308,8 -0.275,0 3.07889,-3.6 7.45308,-8 z m -125.035923,-58 c 0,-27.775 0.128309,-39.1375 0.28513,-25.25 0.156822,13.8875 0.156822,36.6125 0,50.5 -0.156821,13.8875 -0.28513,2.525 -0.28513,-25.25 z m 125.012463,-58.25 -7.97654,-8.25 8.25,7.97654 c 4.5375,4.3871 8.25,8.0996 8.25,8.25 0,0.72935 -1.11509,-0.31419 -8.52346,-7.97654 z M 8.7738553,123.94552 17.023855,115.42463 V 65.474519 15.524404 l -5.75,-6.0289974 -5.7499997,-6.0289974 6.2499997,5.9686965 6.25,5.9686963 v 50.053381 50.053387 l -8.7499997,8.47792 -8.75,8.47792 z"
         id="path3440" /><path
         style="fill:#4f0077"
         d="m 1.0238553,330.73987 v -64.22654 l 8,7.95308 7.9999997,7.95308 v 50.05235 50.05235 L 10.74695,388.7453 C 0.1483689,399.24967 1.0238553,404.47259 1.0238553,330.73987 Z m 0,-131.77346 v -66.45308 l 8,7.95308 7.9999997,7.95308 v 50.54692 50.54692 l -7.9999997,7.95308 -8,7.95308 z m 134.0000047,0 v -65.45308 l 8,7.95308 8,7.95308 v 49.54692 49.54692 l -8,7.95308 -8,7.95308 z M 1.0238553,67.692949 V 3.9664092 h 2.2210026 c 1.3620566,0 4.45596,2.2116369 8.0000001,5.7186965 l 5.778997,5.7186963 v 50.054764 50.054764 l -7.9999997,7.95308 -8,7.95308 z"
         id="path3438" /></g></g></svg>
