<?xml version="1.0" encoding="UTF-8" standalone="no"?>
<!-- Created with Inkscape (http://www.inkscape.org/) -->

<svg
   version="1.1"
   id="svg3186"
   viewBox="0 0 135 532"
   sodipodi:docname="tet2.svg"
   xmlns:inkscape="http://www.inkscape.org/namespaces/inkscape"
   xmlns:sodipodi="http://sodipodi.sourceforge.net/DTD/sodipodi-0.dtd"
   xmlns="http://www.w3.org/2000/svg"
   width="60px"
   height="90px"
   xmlns:svg="http://www.w3.org/2000/svg">
  <defs
     id="defs3190" />
  <sodipodi:namedview
     id="namedview3188"
     pagecolor="#505050"
     bordercolor="#ffffff"
     borderopacity="1"
     inkscape:showpageshadow="false"
     inkscape:pageopacity="0"
     inkscape:pagecheckerboard="1"
     inkscape:deskcolor="#505050"
     showgrid="false"
     inkscape:zoom="1.2934509"
     inkscape:cx="-100.89289"
     inkscape:cy="122.92697"
     inkscape:window-width="2560"
     inkscape:window-height="1377"
     inkscape:window-x="-8"
     inkscape:window-y="-8"
     inkscape:window-maximized="1"
     inkscape:current-layer="g3192" />
  <g
     inkscape:groupmode="layer"
     inkscape:label="Image"
     id="g3192"
     transform="translate(-0.70384556,1.6155349)">
    <g
       id="g3272"
       transform="translate(0.38656718,-2.3193772)"
       inkscape:export-filename="g3272.svg"
       inkscape:export-xdpi="21.65773"
       inkscape:export-ydpi="21.65773">
      <path
         style="fill:#b1f9b1"
         d="m 258.4963,391.38459 -6.72318,-6.77509 v -50.50173 -50.50172 l 7,-6.94636 7,-6.94636 v 64.22318 c 0,35.32275 -0.12457,64.22318 -0.27682,64.22318 -0.15225,0 -3.30225,-3.04879 -7,-6.7751 z m -132.99664,-132.99702 -7.72654,-7.77213 v -49.50133 -49.50134 l 8,-7.95308 8,-7.95308 v 65.22654 c 0,35.8746 -0.12306,65.22654 -0.27346,65.22654 -0.1504,0 -3.7504,-3.49746 -8,-7.77212 z m 132.99664,-1.00298 -6.72318,-6.77509 v -50.00173 -50.00172 l 7,-6.94636 7,-6.94636 v 63.72318 c 0,35.04775 -0.12457,63.72318 -0.27682,63.72318 -0.15225,0 -3.30225,-3.04879 -7,-6.7751 z m -132.47318,-132.16406 -8.25,-8.67669 V 67.079684 17.615531 l 8.5,-8.4558443 8.5,-8.45584445 V 67.431765 c 0,36.700355 -0.1125,66.668875 -0.25,66.596695 -0.1375,-0.0722 -3.9625,-4.03574 -8.5,-8.80793 z"
         id="path3286" />
      <path
         style="fill:#9cf49c"
         d="m 251.2372,334.15969 c 0,-27.775 0.12831,-39.1375 0.28513,-25.25 0.15682,13.8875 0.15682,36.6125 0,50.5 -0.15682,13.8875 -0.28513,2.525 -0.28513,-25.25 z M 34.096011,267.41006 c 18.602589,-0.15243 48.752589,-0.15235 66.999999,1.9e-4 18.24741,0.15253 3.02711,0.27725 -33.822887,0.27714 -36.85,-10e-5 -51.7797,-0.12491 -33.177112,-0.27733 z m 223.902079,-9.52389 -7.22497,-7.27351 v -50.00151 -50.00152 l 7.75,-7.47497 7.75,-7.47497 -7.25,7.52352 -7.25,7.52351 v 49.95297 49.95297 l 7.22497,7.27351 c 3.97374,4.00044 6.99997,7.27352 6.72497,7.27352 -0.275,0 -3.75123,-3.27308 -7.72497,-7.27352 z M 125.27312,143.15969 c 4.37419,-4.4 8.17808,-8 8.45308,-8 0.275,0 -3.07889,3.6 -7.45308,8 -4.37419,4.4 -8.17808,8 -8.45308,8 -0.275,0 3.07889,-3.6 7.45308,-8 z m -0.0235,-18.25 -7.97654,-8.25 8.25,7.97654 c 7.66235,7.40837 8.70589,8.52346 7.97654,8.52346 -0.1504,0 -3.8629,-3.7125 -8.25,-8.25 z"
         id="path3284" />
      <path
         style="fill:#47aa47"
         d="m 134.01575,333.18058 -0.24263,-65.47911 -8.25,-8.52078 -8.25,-8.52078 8.24279,7.96926 8.24279,7.96926 0.26447,-66.46937 0.26447,-66.46937 0.24274,66.74281 0.24274,66.74281 65.75,0.2645 65.75,0.26451 -65.74276,0.24268 -65.74276,0.24269 -0.26461,65.25 -0.26461,65.25 z m 123.23055,57.72911 -6.97318,-7.25 7.25,6.97318 c 6.7338,6.47669 7.70669,7.52682 6.97318,7.52682 -0.15225,0 -3.41475,-3.2625 -7.25,-7.25 z m -6.47318,-107.02503 c 0,-0.15126 3.4875,-3.63876 7.75,-7.75 l 7.75,-7.47497 -7.47497,7.75 c -6.94259,7.19803 -8.02503,8.20627 -8.02503,7.47497 z m -125.5,-274.7249733 c 4.37419,-4.4 8.17808,-8 8.45308,-8 0.275,0 -3.07889,3.6 -7.45308,8 -4.37419,4.4000003 -8.17808,8.0000003 -8.45308,8.0000003 -0.275,0 3.07889,-3.6 7.45308,-8.0000003 z"
         id="path3282" />
      <path
         style="fill:#00ee00"
         d="m 150.77312,334.15969 v -50 h 50 50 v 50 50 h -50 -50 z m -132.999997,-133 v -50 h 50 49.999997 v 50 50 h -49.999997 -50 z m 133.666667,49.33333 c -0.36667,-0.36666 -0.66667,-22.86666 -0.66667,-50 v -49.33333 h 50 50 v 50 50 h -49.33333 c -27.13334,0 -49.63334,-0.3 -50,-0.66667 z M 17.773123,67.159687 v -50 h 50 49.999997 v 50 50.000003 h -49.999997 -50 z"
         id="path3280" />
      <path
         style="fill:#00d700"
         d="m 144.27312,391.15969 6.94636,-7 h 49.55364 49.55364 l 6.94636,7 6.94636,7 h -63.44636 -63.44636 z m -1,-115 -7.95308,-8 h 65.45308 65.45308 l -7.95308,8 -7.95308,8 H 200.77312 151.2262 Z m -133.9999971,-17 7.9530801,-8 h 50.04692 50.046917 l 7.95308,8 7.95308,8 H 67.273123 1.3200433 Z m 133.0513371,-0.0362 8.03618,-8.03618 50.45069,0.054 50.45068,0.054 7.25555,7.20713 c 3.99056,3.96398 7.25556,7.55596 7.25556,7.98222 0,0.42627 -29.58409,0.77503 -65.74242,0.77503 h -65.74243 l 8.03619,-8.03619 z M 9.7731229,142.65969 l -8.4558445,-8.5 8.4558445,-8.5 8.4558441,-8.5 h 49.544156 49.544157 l 8.45584,8.5 8.45584,8.5 -8.45584,8.5 -8.45584,8.5 H 67.773123 18.228967 Z m 132.9999971,0 -8.45584,-8.5 h 65.72792 c 36.15035,0 65.72792,0.34806 65.72792,0.77346 0,0.4254 -3.49746,4.2504 -7.77212,8.5 l -7.77213,7.72654 H 200.72892 151.22896 Z M 9.2731229,9.1596867 l -7.9530796,-8 H 67.273123 133.2262 l -7.95308,8 -7.95308,8.0000003 H 67.273123 17.226203 Z"
         id="path3278" />
      <path
         style="fill:#0ea20e"
         d="m 143.27312,391.15969 c 3.8205,-3.85 7.17136,-7 7.44636,-7 0.275,0 -2.62586,3.15 -6.44636,7 -3.8205,3.85 -7.17136,7 -7.44636,7 -0.275,0 2.62586,-3.15 6.44636,-7 z m -1.02346,-115.25 -7.97654,-8.25 8.25,7.97654 c 7.66235,7.40837 8.70589,8.52346 7.97654,8.52346 -0.1504,0 -3.8629,-3.7125 -8.25,-8.25 z m -125.235996,-74.72911 -0.240541,-50.47911 -8.2279223,-8.27089 -8.2279223,-8.27089 8.2185395,-8.26146 8.2185401,-8.26145 0.268841,-50.488549 0.268842,-50.488544 0.240541,50.479112 0.240541,50.479111 -8.2279223,8.27089 -8.2279223,8.27089 8.2372945,8.28031 8.2372941,8.28031 -0.268831,50.46969 -0.268831,50.46969 z"
         id="path3276" />
      <path
         style="fill:#007700"
         d="m 134.77312,333.43315 v -64.72654 l 8,7.95308 8,7.95308 v 49.49994 49.49995 l -7.22497,7.27351 c -3.97374,4.00044 -7.57374,7.27352 -8,7.27352 -0.42627,0 -0.77503,-29.12694 -0.77503,-64.72654 z M 0.77312285,201.15969 v -66.45308 l 8.00000005,7.95308 8.0000001,7.95308 v 50.54692 50.54692 l -8.0000001,7.95308 -8.00000005,7.95308 z m 133.99999715,-0.5 v -65.95308 l 8,7.95308 8,7.95308 v 50.04692 50.04692 l -8,7.95308 -8,7.95308 z M 0.77312285,67.159687 V 0.70660712 L 8.7731229,8.6596867 16.773123,16.612767 v 50.54692 50.546923 l -8.0000001,7.95308 -8.00000005,7.95308 z"
         id="path3274" />
    </g>
  </g>
</svg>
